<?xml version="1.0" encoding="UTF-8" standalone="no"?><!DOCTYPE svg PUBLIC "-//W3C//DTD SVG 1.1//EN" "http://www.w3.org/Graphics/SVG/1.1/DTD/svg11.dtd"><svg width="100%" height="100%" viewBox="0 0 155 211" version="1.1" xmlns="http://www.w3.org/2000/svg" xmlns:xlink="http://www.w3.org/1999/xlink" xml:space="preserve" xmlns:serif="http://www.serif.com/" style="fill-rule:evenodd;clip-rule:evenodd;stroke-linejoin:round;stroke-miterlimit:2;"><g><g transform="matrix(75.242647,0,0,75.242647,158.090386,181.977476)"></g><text x="-4.997px" y="181.977px" style="font-family:'ArialMT', 'Arial', sans-serif;font-size:75.243px;fill:#2b2828;">keria</text><g><path d="M73.322,120.449c0.149,0.924 1.675,4.495 -2.392,3.719c-3.3,-0.629 -55.899,-6.61 -50.241,-82.576c0.298,-3.997 3.778,-3.834 21.083,3.511c11.197,4.752 50.028,21.322 41.255,68.126c-0.134,0.715 -2.733,14.579 -4.17,8.084c-1.007,-4.548 -5.926,-26.775 -29.296,-50.323c-1.808,-1.822 -3.534,0.188 -1.466,2.336c5.376,5.585 17.756,19.565 25.227,47.122Z" style="fill:url(#_Linear1);"/><path d="M94.844,88.477c-4.445,7.019 -5.867,10.11 -6.027,7.051c-1.06,-20.228 -9.997,-21.374 -3.391,-27.92c16.667,-21.202 49.98,-29.556 52.053,-28.887c2.184,0.705 3.85,38.769 -9.307,59.306c-1.855,2.896 -12.637,19.726 -35.102,24.819c-5.408,1.226 -8.825,2.96 -7.506,-2.368c7.882,-31.836 26.844,-48.256 26.644,-49.708c-0.589,-4.276 -11.325,9.915 -17.363,17.706Z" style="fill:url(#_Linear2);"/><path d="M60.154,48.287c2.206,-15.04 30.452,-20.871 38.499,-1.846c0.04,0.095 -0.363,2.182 -0.459,2.229c-7.803,3.788 -20.981,18.433 -19.814,18.933c0,0 -8.6,-15.243 -18.226,-19.315Z" style="fill:#f2af0d;"/><path d="M103.21,5.008c-0.039,1.083 -0.192,5.27 -4.578,12.749c-2.047,3.49 -6.858,16.419 -8.148,16.555c-3.768,0.397 1.885,-9.078 4.843,-15.126c5.885,-12.036 4.204,-14.337 7.884,-14.178Zm-47.417,41.732c-1.958,-0.76 -1.843,-0.807 -3.666,-1.9c-13.497,-8.093 -29.254,-15.549 -20.564,-14.155c0.6,0.096 14.28,7.202 15.444,7.969c8.147,5.37 10.716,5.007 8.787,8.086Zm22.62,-46.231c2.78,-1.658 1.514,0.992 1.571,4.199c0.334,18.607 0.335,20.155 -0.129,26.72l-0.625,0.227l-1.562,-0.243c-0.248,-2.384 -0.173,-27.424 0.745,-30.902Zm28.522,43.24c-0.378,0.22 -4.477,2.607 -5.234,1.587c-1.37,-1.845 0.652,-1.684 21.823,-14.26c1.175,-0.698 4.152,0.616 0.54,2.891c-1.253,0.79 -16.614,9.505 -17.129,9.782Zm-39.562,-14.151c0.156,0.369 2.301,5.433 -0.134,5.005c-0.963,-0.169 -11.737,-24.996 -11.659,-25.674c0.267,-2.311 1.887,-1.934 2.555,0.246c0.695,2.268 8.475,18.8 9.238,20.422Zm49.728,-5.507c0.076,0.886 0.52,1.079 -0.302,1.434c-1.666,0.719 -1.496,0.89 -2.144,2.536c-0.057,0.145 -13.71,12.262 -14.773,12.867c-0.536,0.305 -3.604,-0.528 0.406,-3.785c11.357,-9.225 13.275,-12.911 16.813,-13.052Zm-56.884,10.83c-1.344,-1.769 -1.338,-1.755 -1.451,-1.91c-9.818,-13.415 -10.706,-13.198 -10.187,-14.518c0.191,-0.485 1.476,-2.397 5.532,3.45c8.899,12.825 9.533,12.55 9.622,13.899c0.246,3.724 -3.333,-0.695 -3.516,-0.921Zm-17.413,-9.402c1.461,1.056 16.987,12.273 17.097,14.681c0.213,4.673 -3.1,-0.703 -17.67,-12.359c-0.641,-1.346 -0.652,-1.549 0.573,-2.321Zm54.105,10.079c-3.211,3.63 -2.805,-0.294 -2.71,-0.493c0.384,-0.806 11.204,-15.824 12.687,-16.283c0.447,-0.139 2.441,0.683 0.871,2.331c-2.32,2.436 -10.783,14.357 -10.849,14.445Zm-13.284,-3.284c-0.27,-2.029 -0.049,-1.998 3.871,-19.971c0.452,-2.074 2.369,-1.376 2.064,1.001c-0.791,6.171 -3.946,19.796 -4.589,19.712c-0.08,-0.011 0.405,-0.31 -0.563,-0.844c-0.393,-0.217 -0.35,0.34 -0.782,0.102Zm-9.935,-0.111c-1.212,0.785 -1.568,0.581 -2.007,-0.827c-0.463,-1.483 -3.699,-17.855 -3.728,-18.027c-0.436,-2.6 1.716,-2.667 2.22,-0.67c4.123,16.339 3.813,17.965 3.515,19.524Z" style="fill:#f2af0d;"/><g transform="matrix(26.680473,0,0,26.680473,134.640812,210.097459)"></g><text x="17.46px" y="210.097px" style="font-family:'Poppins-Regular', 'Poppins';font-size:26.68px;fill:#808080;">Wellness</text><path d="M122.309,21.365c3.479,0.182 4.1,-0.163 3.843,0.574c-0.762,2.177 -3.331,2.106 -3.255,1.212c0.093,-1.101 0.333,-1.263 -0.587,-1.787Z" style="fill:#fdfefa;"/><path d="M13.323,50.402c-0.006,0.105 -0.012,0.21 -0.018,0.315c-0.046,-0.037 -0.131,0.02 -0.177,-0.017c-0.022,-0.018 0.014,-0.021 0.195,-0.298Z" style="fill:#4afcaa;"/><path d="M75.722,32.612c0.633,0.099 1.266,0.197 1.899,0.296l-1.136,0.512c-0.255,-0.269 -0.509,-0.538 -0.764,-0.808Z" style="fill:#e8dac6;"/><path d="M77.621,32.908l0.76,-0.275c-0.263,0.246 0.071,0.966 -1.895,0.787l1.136,-0.512Z" style="fill:#e8dbc5;"/></g></g><defs><linearGradient id="_Linear1" x1="0" y1="0" x2="1" y2="0" gradientUnits="userSpaceOnUse" gradientTransform="matrix(64.042852,0,0,85.296435,20.262846,81.628983)"><stop offset="0" style="stop-color:#8aa80b;stop-opacity:1"/><stop offset="1" style="stop-color:#679e1e;stop-opacity:1"/></linearGradient><linearGradient id="_Linear2" x1="0" y1="0" x2="1" y2="0" gradientUnits="userSpaceOnUse" gradientTransform="matrix(55.955708,0,0,85.441827,83.012657,81.4054)"><stop offset="0" style="stop-color:#059bcb;stop-opacity:1"/><stop offset="0.42" style="stop-color:#31aaca;stop-opacity:1"/><stop offset="1" style="stop-color:#8fcac8;stop-opacity:1"/></linearGradient></defs></svg>